<svg xmlns="http://www.w3.org/2000/svg" width="952" height="230" viewBox="0 0 952 230">
    <g fill="none" fill-rule="evenodd">
        <g fill="#FF4A2F" transform="translate(-.908 -.263) translate(1 1)">
            <g fill-rule="nonzero">
                <circle cx="114.364" cy="114.364" r="30.702"/>
                <path d="M134.378 20.014C134.378 8.949 125.428 0 114.364 0 103.299 0 94.35 8.949 94.35 20.014c0 10.092 7.491 18.412 17.212 19.785 0 .085-.057.143-.057.228V65.76c0 1.573 1.287 2.86 2.859 2.86 1.573 0 2.86-1.287 2.86-2.86V40.027c0-.085-.03-.143-.058-.228 9.72-1.373 17.212-9.693 17.212-19.785zM94.35 208.714c0 11.065 8.95 20.014 20.014 20.014 11.065 0 20.014-8.949 20.014-20.014 0-10.092-7.491-18.412-17.212-19.785 0-.085.057-.143.057-.228v-25.732c0-1.573-1.286-2.86-2.859-2.86-1.572 0-2.86 1.287-2.86 2.86V188.7c0 .085.03.143.058.228-9.72 1.373-17.212 9.693-17.212 19.785zM208.714 94.35c-10.092 0-18.412 7.491-19.785 17.212-.085-.028-.143-.057-.228-.057h-25.732c-1.573 0-2.86 1.287-2.86 2.859 0 1.573 1.287 2.86 2.86 2.86H188.7c.085 0 .143-.03.228-.058 1.373 9.72 9.693 17.212 19.785 17.212 11.065 0 20.014-8.95 20.014-20.014 0-11.065-8.949-20.014-20.014-20.014zM39.799 117.166c.085 0 .143.057.228.057H65.76c1.573 0 2.86-1.286 2.86-2.859 0-1.572-1.287-2.86-2.86-2.86H40.027c-.085 0-.143.03-.228.058-1.373-9.72-9.693-17.212-19.785-17.212C8.949 94.35 0 103.3 0 114.364c0 11.065 8.949 20.014 20.014 20.014 10.092 0 18.412-7.491 19.785-17.212zM61.814 195.22c7.148-7.148 7.748-18.327 1.83-26.161.057-.058.143-.058.2-.115l16.182-16.182c1.115-1.115 1.115-2.917 0-4.032-1.115-1.115-2.916-1.115-4.031 0l-16.183 16.183c-.057.057-.085.143-.114.2-7.834-5.89-19.013-5.318-26.16 1.83-7.806 7.805-7.806 20.5 0 28.305 7.776 7.805 20.442 7.805 28.276-.029zM195.22 166.914c-7.148-7.147-18.327-7.748-26.161-1.83-.115-.142-.2-.285-.343-.4l-20.214-16.182c-1.23-1.001-3.03-.772-4.032.457-.972 1.23-.772 3.03.458 4.031l20.156 16.126c-5.89 7.834-5.26 18.984 1.859 26.132 7.805 7.805 20.5 7.805 28.305 0 7.805-7.834 7.805-20.5-.029-28.334zM61.814 33.509c-7.806-7.806-20.5-7.806-28.305 0-7.806 7.805-7.806 20.5 0 28.305 7.119 7.119 18.298 7.72 26.132 1.858L75.766 83.83c.572.715 1.401 1.086 2.23 1.086.63 0 1.258-.2 1.773-.629 1.23-.972 1.43-2.773.457-4.031L64.044 60.041c-.115-.143-.286-.229-.4-.343 5.89-7.863 5.289-19.07-1.83-26.19zM148.73 82.857c.744 0 1.459-.286 2.03-.83l18.184-18.183c.057-.057.086-.143.115-.2 7.834 5.89 19.013 5.318 26.16-1.83 7.806-7.806 7.806-20.5 0-28.305-7.805-7.806-20.5-7.806-28.305 0-7.147 7.147-7.748 18.326-1.83 26.16-.057.058-.142.058-.2.115L146.7 77.968c-1.115 1.115-1.115 2.916 0 4.031.572.572 1.287.858 2.03.858z"/>
            </g>
            <circle cx="62.541" cy="114.435" r="8.569"/>
            <circle cx="114.364" cy="63.242" r="8.569"/>
            <circle cx="75.654" cy="152.679" r="8.569"/>
            <circle cx="150.268" cy="152.679" r="8.569"/>
            <circle cx="114.364" cy="164.101" r="8.569"/>
            <circle cx="151.306" cy="77.817" r="8.569"/>
            <circle cx="73.358" cy="77.817" r="8.569"/>
            <circle cx="166.187" cy="114.435" r="8.569"/>
        </g>
        <path fill="#171717" fill-rule="nonzero" d="M308.912 96.249c10.693 0 20.143-5.471 24.951-13.927l-8.29-4.725c-2.984 5.72-9.366 9.367-16.661 9.367-12.517 0-20.807-8.87-20.807-20.806 0-11.937 8.29-20.807 20.807-20.807 7.295 0 13.595 3.648 16.662 9.367l8.29-4.807c-4.892-8.456-14.342-13.844-24.952-13.844-17.657 0-30.34 13.263-30.34 30.09 0 16.829 12.683 30.092 30.34 30.092zm60.43 0c16.828 0 30.09-13.263 30.09-30.091 0-16.828-13.262-30.09-30.09-30.09-16.745 0-30.09 13.262-30.09 30.09s13.345 30.09 30.09 30.09zm0-9.285c-11.605 0-20.558-8.87-20.558-20.806 0-11.937 8.953-20.807 20.558-20.807s20.558 8.87 20.558 20.807-8.953 20.806-20.558 20.806zm64.99 8.207l20.143-58.026h-10.362l-15.501 46.504-15.419-46.504H402.75l20.143 58.026h11.44zm35.893 0V37.145h-9.533V95.17h9.533zm34.401 0c15.999 0 27.77-12.849 27.77-29.013 0-16.247-11.771-29.013-27.77-29.013H481.83V95.17h22.796zm0-9.118h-13.263v-39.79h13.263c11.025 0 18.569 8.373 18.569 19.895 0 11.44-7.544 19.895-18.569 19.895zm67.145-11.771V65.66H541.1v8.62h30.671zm30.422 20.89V37.144h-8.29l-15.252 5.388 2.321 8.124 11.689-3.316v47.83h9.532zm27.521 0l18.32-27.605c2.238-3.233 3.482-7.212 3.482-11.688 0-11.688-8.455-19.812-20.475-19.812-12.02 0-20.558 8.124-20.558 19.812S619.02 75.69 631.04 75.69h.995l-13.264 19.48h10.942zm1.327-28.517c-6.3 0-11.025-4.227-11.025-10.776 0-6.632 4.725-10.776 11.025-10.776 6.3 0 10.942 4.144 10.942 10.776s-4.642 10.776-10.942 10.776zM304.27 187.276c15.998 0 27.77-12.848 27.77-29.013 0-16.247-11.772-29.013-27.77-29.013h-22.796v58.026h22.796zm0-9.118h-13.263v-39.79h13.263c11.025 0 18.568 8.373 18.568 19.895 0 11.44-7.543 19.895-18.568 19.895zm40.37-38.546c3.15 0 5.72-2.653 5.72-5.72 0-3.15-2.57-5.72-5.72-5.72s-5.72 2.57-5.72 5.72c0 3.067 2.57 5.72 5.72 5.72zm4.476 47.664V145.83h-8.953v41.447h8.953zm30.837 17.657c10.859 0 21.304-6.217 21.304-19.563v-39.541h-8.787v6.134c-3.15-4.476-8.041-7.212-14.424-7.212-11.688 0-20.89 9.533-20.89 21.387 0 11.854 9.202 21.387 20.89 21.387 6.383 0 11.274-2.736 14.424-7.212v5.057c0 7.212-4.642 11.44-12.352 11.44-7.211 0-10.279-2.82-12.102-6.384l-7.71 4.477c3.482 6.631 10.528 10.03 19.647 10.03zm-.664-25.78c-7.543 0-13.18-5.554-13.18-13.015 0-7.46 5.637-13.014 13.18-13.014 7.544 0 13.18 5.554 13.18 13.014 0 7.46-5.636 13.015-13.18 13.015zm36.889-39.541c3.15 0 5.72-2.653 5.72-5.72 0-3.15-2.57-5.72-5.72-5.72s-5.72 2.57-5.72 5.72c0 3.067 2.57 5.72 5.72 5.72zm4.476 47.664V145.83H411.7v41.447h8.953zm33.49 0v-8.04c-6.798.331-10.28.414-10.28-4.891V154.45h10.28v-8.621h-10.28v-11.605l-8.952 2.652v8.953h-7.626v8.621h7.626v19.895c0 10.776 5.47 14.59 19.231 12.931zM481 188.354c6.466 0 11.357-2.653 14.507-7.046v5.968h8.953V145.83h-8.953v5.885c-3.15-4.31-8.04-6.963-14.507-6.963-11.273 0-20.64 9.45-20.64 21.802 0 12.268 9.367 21.8 20.64 21.8zm1.41-8.538c-7.461 0-13.098-5.554-13.098-13.263 0-7.71 5.637-13.264 13.098-13.264 7.46 0 13.097 5.554 13.097 13.264 0 7.709-5.637 13.263-13.097 13.263zm41.447 7.46v-60.513h-8.953v60.513h8.953zm59.104 1.078c10.693 0 20.143-5.471 24.951-13.926l-8.29-4.725c-2.984 5.72-9.366 9.367-16.661 9.367-12.517 0-20.807-8.87-20.807-20.807s8.29-20.806 20.807-20.806c7.295 0 13.595 3.647 16.662 9.367l8.29-4.808c-4.892-8.455-14.342-13.844-24.952-13.844-17.657 0-30.34 13.264-30.34 30.091 0 16.828 12.683 30.09 30.34 30.09zm41.613-1.078v-60.513h-8.953v60.513h8.953zm28.682 1.078c6.465 0 11.356-2.653 14.506-7.046v5.968h8.953V145.83h-8.953v5.885c-3.15-4.31-8.04-6.963-14.506-6.963-11.274 0-20.641 9.45-20.641 21.802 0 12.268 9.367 21.8 20.64 21.8zm1.409-8.538c-7.46 0-13.098-5.554-13.098-13.263 0-7.71 5.637-13.264 13.098-13.264 7.46 0 13.097 5.554 13.097 13.264 0 7.709-5.637 13.263-13.097 13.263zm46.67 8.538c8.952 0 16.164-4.476 16.164-12.766 0-15.335-22.299-10.776-22.299-18.32 0-2.984 2.819-4.393 6.052-4.393 3.398 0 6.3 1.492 7.792 4.725l7.543-4.228c-2.901-5.47-8.538-8.62-15.335-8.62-8.456 0-15.17 4.89-15.17 12.682 0 14.838 22.299 10.694 22.299 18.071 0 3.316-3.068 4.642-7.046 4.642-4.56 0-7.875-2.238-9.202-5.968l-7.709 4.476c2.653 5.969 8.621 9.699 16.91 9.699zm38.214 0c8.953 0 16.164-4.476 16.164-12.766 0-15.335-22.298-10.776-22.298-18.32 0-2.984 2.818-4.393 6.051-4.393 3.399 0 6.3 1.492 7.792 4.725l7.544-4.228c-2.902-5.47-8.539-8.62-15.336-8.62-8.455 0-15.17 4.89-15.17 12.682 0 14.838 22.3 10.694 22.3 18.071 0 3.316-3.068 4.642-7.047 4.642-4.56 0-7.875-2.238-9.201-5.968l-7.71 4.476c2.653 5.969 8.622 9.699 16.911 9.699zm32.992-1.078v-20.89c0-9.283 6.88-12.019 12.766-11.604v-9.7c-5.222 0-10.28 2.073-12.766 7.71v-6.963h-8.953v41.447h8.953zm38.96 1.078c12.186 0 21.885-9.533 21.885-21.801 0-12.352-9.699-21.802-21.884-21.802-12.103 0-21.885 9.45-21.885 21.802 0 12.268 9.782 21.8 21.885 21.8zm0-8.704c-7.294 0-12.93-5.554-12.93-13.097 0-7.544 5.636-13.098 12.93-13.098 7.295 0 12.932 5.554 12.932 13.098 0 7.543-5.637 13.097-12.931 13.097zm49.572 8.704c12.185 0 21.884-9.533 21.884-21.801 0-12.352-9.699-21.802-21.884-21.802-12.103 0-21.885 9.45-21.885 21.802 0 12.268 9.782 21.8 21.885 21.8zm0-8.704c-7.295 0-12.932-5.554-12.932-13.097 0-7.544 5.637-13.098 12.932-13.098 7.294 0 12.931 5.554 12.931 13.098 0 7.543-5.637 13.097-12.931 13.097zm38.96 7.626v-23.21c0-7.544 4.145-10.942 9.202-10.942 4.89 0 7.792 3.233 7.792 9.035v25.117h8.952v-23.21c0-7.544 3.73-10.942 9.036-10.942 4.89 0 8.04 3.233 8.04 9.035v25.117h8.953V161.58c0-10.362-6.3-16.828-15.667-16.828-5.554 0-9.947 2.238-12.683 6.549-2.404-4.145-6.383-6.549-11.77-6.549-5.14 0-9.202 1.99-11.855 6.052v-4.974h-8.952v41.447h8.952z" transform="translate(-.908 -.263)"/>
    </g>
</svg>
